<svg width="170" height="28" viewBox="0 0 170 28" fill="none" xmlns="http://www.w3.org/2000/svg">
<path d="M27.8571 11.1172C27.8571 10.615 27.3214 10.4141 26.9196 10.3471L18.5156 9.125L14.7489 1.50781C14.5982 1.18973 14.3136 0.821428 13.9286 0.821428C13.5435 0.821428 13.2589 1.18973 13.1083 1.50781L9.34152 9.125L0.9375 10.3471C0.518973 10.4141 0 10.615 0 11.1172C0 11.4185 0.217634 11.7031 0.418527 11.9208L6.51228 17.8471L5.07254 26.2176C5.0558 26.3348 5.03906 26.4353 5.03906 26.5525C5.03906 26.9877 5.2567 27.3895 5.74219 27.3895C5.97656 27.3895 6.1942 27.3058 6.41183 27.1886L13.9286 23.2377L21.4453 27.1886C21.6462 27.3058 21.8806 27.3895 22.115 27.3895C22.6004 27.3895 22.8013 26.9877 22.8013 26.5525C22.8013 26.4353 22.8013 26.3348 22.7846 26.2176L21.3449 17.8471L27.4219 11.9208C27.6395 11.7031 27.8571 11.4185 27.8571 11.1172ZM63.2185 11.1172C63.2185 10.615 62.6828 10.4141 62.281 10.3471L53.877 9.125L50.1102 1.50781C49.9595 1.18973 49.6749 0.821428 49.2899 0.821428C48.9049 0.821428 48.6203 1.18973 48.4696 1.50781L44.7028 9.125L36.2988 10.3471C35.8803 10.4141 35.3613 10.615 35.3613 11.1172C35.3613 11.4185 35.579 11.7031 35.7799 11.9208L41.8736 17.8471L40.4339 26.2176C40.4171 26.3348 40.4004 26.4353 40.4004 26.5525C40.4004 26.9877 40.618 27.3895 41.1035 27.3895C41.3379 27.3895 41.5555 27.3058 41.7732 27.1886L49.2899 23.2377L56.8066 27.1886C57.0075 27.3058 57.2419 27.3895 57.4763 27.3895C57.9618 27.3895 58.1627 26.9877 58.1627 26.5525C58.1627 26.4353 58.1627 26.3348 58.1459 26.2176L56.7062 17.8471L62.7832 11.9208C63.0008 11.7031 63.2185 11.4185 63.2185 11.1172ZM98.5798 11.1172C98.5798 10.615 98.0441 10.4141 97.6423 10.3471L89.2383 9.125L85.4715 1.50781C85.3209 1.18973 85.0363 0.821428 84.6512 0.821428C84.2662 0.821428 83.9816 1.18973 83.8309 1.50781L80.0642 9.125L71.6602 10.3471C71.2416 10.4141 70.7227 10.615 70.7227 11.1172C70.7227 11.4185 70.9403 11.7031 71.1412 11.9208L77.2349 17.8471L75.7952 26.2176C75.7785 26.3348 75.7617 26.4353 75.7617 26.5525C75.7617 26.9877 75.9794 27.3895 76.4648 27.3895C76.6992 27.3895 76.9169 27.3058 77.1345 27.1886L84.6512 23.2377L92.168 27.1886C92.3689 27.3058 92.6032 27.3895 92.8376 27.3895C93.3231 27.3895 93.524 26.9877 93.524 26.5525C93.524 26.4353 93.524 26.3348 93.5073 26.2176L92.0675 17.8471L98.1445 11.9208C98.3622 11.7031 98.5798 11.4185 98.5798 11.1172ZM133.941 11.1172C133.941 10.615 133.405 10.4141 133.004 10.3471L124.6 9.125L120.833 1.50781C120.682 1.18973 120.398 0.821428 120.013 0.821428C119.628 0.821428 119.343 1.18973 119.192 1.50781L115.426 9.125L107.021 10.3471C106.603 10.4141 106.084 10.615 106.084 11.1172C106.084 11.4185 106.302 11.7031 106.503 11.9208L112.596 17.8471L111.157 26.2176C111.14 26.3348 111.123 26.4353 111.123 26.5525C111.123 26.9877 111.341 27.3895 111.826 27.3895C112.061 27.3895 112.278 27.3058 112.496 27.1886L120.013 23.2377L127.529 27.1886C127.73 27.3058 127.965 27.3895 128.199 27.3895C128.684 27.3895 128.885 26.9877 128.885 26.5525C128.885 26.4353 128.885 26.3348 128.869 26.2176L127.429 17.8471L133.506 11.9208C133.723 11.7031 133.941 11.4185 133.941 11.1172ZM169.302 11.1172C169.302 10.615 168.767 10.4141 168.365 10.3471L159.961 9.125L156.194 1.50781C156.044 1.18973 155.759 0.821428 155.374 0.821428C154.989 0.821428 154.704 1.18973 154.554 1.50781L150.787 9.125L142.383 10.3471C141.964 10.4141 141.445 10.615 141.445 11.1172C141.445 11.4185 141.663 11.7031 141.864 11.9208L147.958 17.8471L146.518 26.2176C146.501 26.3348 146.484 26.4353 146.484 26.5525C146.484 26.9877 146.702 27.3895 147.188 27.3895C147.422 27.3895 147.64 27.3058 147.857 27.1886L155.374 23.2377L162.891 27.1886C163.092 27.3058 163.326 27.3895 163.56 27.3895C164.046 27.3895 164.247 26.9877 164.247 26.5525C164.247 26.4353 164.247 26.3348 164.23 26.2176L162.79 17.8471L168.867 11.9208C169.085 11.7031 169.302 11.4185 169.302 11.1172Z" fill="white"/>
</svg>
